<svg id="artwork" height="512" viewBox="0 0 64 64" width="512" xmlns="http://www.w3.org/2000/svg"><path d="m47 30.5a16.5 16.5 0 1 0 16.5 16.5 16.519 16.519 0 0 0 -16.5-16.5zm7.4248 23.92432a10.51032 10.51032 0 0 1 -14.8496 0 1.49984 1.49984 0 0 1 2.12109-2.1211 7.51142 7.51142 0 0 0 10.60742 0 1.49984 1.49984 0 0 1 2.12109 2.1211z" fill="#3e3ef4"/><path d="m49.252 18.5h-14.502v-8.5a9.51081 9.51081 0 0 0 -9.5-9.5 3.50424 3.50424 0 0 0 -3.5 3.5v3.85791a32.41412 32.41412 0 0 1 -9.142 22.64209h-8.608a3.50424 3.50424 0 0 0 -3.5 3.5v26a3.50424 3.50424 0 0 0 3.5 3.5h29a1.5 1.5 0 0 0 0-3h-18.25v-27.88623a35.39941 35.39941 0 0 0 10-24.75586v-3.85791a.50034.50034 0 0 1 .5-.5 6.50753 6.50753 0 0 1 6.5 6.5v10a1.49977 1.49977 0 0 0 1.5 1.5h16.002a2.50221 2.50221 0 0 1 2.498 2.5v3.36182a1.5 1.5 0 0 0 3 0v-3.36182a5.5055 5.5055 0 0 0 -5.498-5.5zm-37.502 42h-7.75a.50034.50034 0 0 1 -.5-.5v-26a.50034.50034 0 0 1 .5-.5h7.75z"/></svg>