<svg id="artwork" height="512" viewBox="0 0 64 64" width="512" xmlns="http://www.w3.org/2000/svg"><path d="m59 15.5h-6a1.5 1.5 0 0 0 0 3h6a1.50164 1.50164 0 0 1 1.5 1.5v32a1.50164 1.50164 0 0 1 -1.5 1.5h-54a1.50164 1.50164 0 0 1 -1.5-1.5v-32a1.50164 1.50164 0 0 1 1.5-1.5h6a1.5 1.5 0 0 0 0-3h-6a4.50491 4.50491 0 0 0 -4.5 4.5v32a4.50491 4.50491 0 0 0 4.5 4.5h15.5v4h-5.5a1.5 1.5 0 0 0 0 3h34a1.5 1.5 0 0 0 0-3h-5.5v-4h15.5a4.50491 4.50491 0 0 0 4.5-4.5v-32a4.50491 4.50491 0 0 0 -4.5-4.5zm-18.5 45h-17v-4h17z"/><path d="m12.1582 42.6709 2 4a1.50091 1.50091 0 0 0 2.48047.30566l6-7a1.50008 1.50008 0 0 0 -2.27734-1.95312l-4.52979 5.28515-.98974-1.97949a1.50018 1.50018 0 0 0 -2.6836 1.3418z"/><path d="m22 46a1.50008 1.50008 0 0 0 1.5 1.5h27a1.5 1.5 0 0 0 0-3h-27a1.50008 1.50008 0 0 0 -1.5 1.5z"/><path d="m44 .5h-24a4.50491 4.50491 0 0 0 -4.5 4.5v24a4.50491 4.50491 0 0 0 4.5 4.5h24a4.50491 4.50491 0 0 0 4.5-4.5v-24a4.50491 4.50491 0 0 0 -4.5-4.5zm-3.21582 25.333h-17.56787a1.5 1.5 0 0 1 0-3h17.56787a1.5 1.5 0 0 1 0 3zm0-7.333h-17.56787a1.5 1.5 0 0 1 0-3h17.56787a1.5 1.5 0 0 1 0 3zm0-7.333h-17.56787a1.5 1.5 0 0 1 0-3h17.56787a1.5 1.5 0 0 1 0 3z" fill="#3e3ef4"/></svg>