<svg height="512" viewBox="0 0 64 64" width="512" xmlns="http://www.w3.org/2000/svg"><g id="artwork"><path d="m30 12.5h-3v-2a10 10 0 0 0 -20 0v2h-3a3.50424 3.50424 0 0 0 -3.5 3.5v12a3.50424 3.50424 0 0 0 3.5 3.5h26a3.50424 3.50424 0 0 0 3.5-3.5v-12a3.50424 3.50424 0 0 0 -3.5-3.5zm-20.5 12.5a1.5 1.5 0 0 1 -3 0v-6a1.5 1.5 0 0 1 3 0zm9 0a1.5 1.5 0 0 1 -3 0v-6a1.5 1.5 0 0 1 3 0zm3.5-12.5h-10v-2a5 5 0 0 1 10 0zm5.5 12.5a1.5 1.5 0 0 1 -3 0v-6a1.5 1.5 0 0 1 3 0z" fill="#3e3ef4"/><path d="m50 57.5h6a1.5 1.5 0 0 0 0-3h-6a1.5 1.5 0 0 0 0 3z"/><path d="m38 57.5h6a1.5 1.5 0 0 0 0-3h-6a1.5 1.5 0 0 0 0 3z"/><path d="m60 16.5h-22a1.5 1.5 0 0 0 0 3h22a.501.501 0 0 1 .5.5v20.5h-57v-4.5a1.5 1.5 0 0 0 -3 0v24a3.50424 3.50424 0 0 0 3.5 3.5h56a3.50424 3.50424 0 0 0 3.5-3.5v-40a3.50424 3.50424 0 0 0 -3.5-3.5zm.5 43.5a.501.501 0 0 1 -.5.5h-56a.501.501 0 0 1 -.5-.5v-8.5h57zm0-11.5h-57v-5h57z"/></g></svg>